<?xml version="1.0" encoding="UTF-8"?>
<svg width="752pt" height="752pt" version="1.1" viewBox="0 0 752 752" xmlns="http://www.w3.org/2000/svg">
 <g fill="#e8d9f7">
  <path d="m279.8 376c0 25.516 10.137 49.98 28.176 68.023 18.039 18.039 42.508 28.176 68.02 28.176 25.516 0 49.98-10.137 68.023-28.176 18.039-18.043 28.176-42.508 28.176-68.023 0-25.512-10.137-49.98-28.176-68.02-18.043-18.039-42.508-28.176-68.023-28.176-25.504 0.027343-49.953 10.172-67.988 28.207-18.035 18.035-28.18 42.484-28.207 67.988zm44.398 62.738v-32.77c0.003906-4.0195 1.6055-7.8789 4.4492-10.719 2.8438-2.8438 6.6992-4.4453 10.719-4.4492h5.2461l21.453 10.727-11.488 22.98c-1.0391 2.082-1.0391 4.5352 0 6.6211l12.91 25.816c-15.91-1.6602-30.973-7.9961-43.289-18.203zm22.199-77.535c-0.10547-9.4531 4.3125-18.387 11.887-24.039 7.5781-5.6562 17.398-7.3477 26.43-4.5547s16.184 9.7344 19.246 18.68c3.0625 8.9414 1.6641 18.812-3.7578 26.555l-24.207 12.102-24.262-12.133c-3.4258-4.8672-5.2852-10.66-5.3359-16.609zm29.598 79.668-6.5234-13.055 6.5234-13.055 6.5234 13.055zm51.797-2.1328 0.003906 0.003907c-12.316 10.207-27.379 16.543-43.289 18.203l12.91-25.82c1.0391-2.082 1.0391-4.5352 0-6.6172l-11.492-22.98 21.457-10.727h5.2461c4.0195 0.003907 7.875 1.6055 10.719 4.4492 2.8438 2.8398 4.4453 6.6992 4.4492 10.719zm29.602-62.738c0.003906 16.707-5.168 33.004-14.801 46.656v-16.688c-0.007812-7.0742-2.5156-13.918-7.0781-19.324-4.5625-5.4023-10.887-9.0234-17.859-10.223 2.9648-8.0078 3.5469-16.703 1.6719-25.039-3.2383-14.336-13.363-26.141-27.043-31.531-13.676-5.3867-29.133-3.6562-41.281 4.6211-12.148 8.2773-19.414 22.027-19.406 36.73 0 5.1953 0.93359 10.352 2.7539 15.219-6.9727 1.1914-13.301 4.8125-17.867 10.219-4.5664 5.4062-7.0742 12.254-7.0859 19.328v16.688c-14.875-21.234-18.742-48.281-10.414-72.832 8.332-24.551 27.863-43.66 52.586-51.453 24.727-7.7969 51.684-3.3398 72.59 11.992 20.902 15.336 33.246 39.715 33.234 65.637z"/>
  <path d="m222.78 603.22c2.1133 2.1172 5.2969 2.75 8.0625 1.6055s4.5664-3.8438 4.5664-6.8359v-22.199h332.99v-14.801h-340.39c-4.0859 0-7.3984 3.3164-7.3984 7.4023v11.734l-48.734-48.734 48.734-48.734v11.738c0 1.9609 0.77734 3.8438 2.1641 5.2305 1.3906 1.3867 3.2695 2.168 5.2344 2.168h37v-14.801h-29.602v-22.199c0-2.9922-1.8008-5.6914-4.5664-6.8359-2.7656-1.1445-5.9492-0.51172-8.0625 1.6055l-66.598 66.598c-1.3906 1.3867-2.168 3.2695-2.168 5.2305 0 1.9648 0.77734 3.8438 2.168 5.2344z"/>
  <path d="m479.6 494.4h118.39v14.801h-118.39z"/>
  <path d="m529.23 148.78c-2.1172-2.1133-5.2969-2.75-8.0625-1.6016-2.7656 1.1445-4.5664 3.8438-4.5664 6.8359v22.199h-332.99v14.797h340.39c1.9609 0 3.8438-0.77734 5.2305-2.168 1.3906-1.3867 2.168-3.2695 2.168-5.2305v-11.734l48.734 48.734-48.734 48.73v-11.734c0-1.9609-0.77734-3.8438-2.168-5.2305-1.3867-1.3906-3.2695-2.168-5.2305-2.168h-37v14.801h29.598v22.199l0.003906-0.003906c-0.003906 2.9961 1.8008 5.6914 4.5664 6.8398 2.7656 1.1445 5.9453 0.51172 8.0625-1.6055l66.598-66.598c1.3867-1.3867 2.168-3.2695 2.168-5.2305 0-1.9648-0.78125-3.8477-2.168-5.2344z"/>
  <path d="m154.01 242.81h118.39v14.801h-118.39z"/>
  <path d="m405.6 228.01h-59.199c-4.0859 0-7.3984 3.3125-7.3984 7.3984v20.484c-7.5273 2.3086-14.82 5.3281-21.777 9.0117l-14.477-14.48c-1.3867-1.3867-3.2695-2.168-5.2344-2.168-1.9609 0-3.8438 0.78125-5.2305 2.168l-41.863 41.863c-1.3867 1.3867-2.168 3.2695-2.168 5.2305 0 1.9648 0.78125 3.8477 2.168 5.2344l14.477 14.477h0.003906c-3.6836 6.957-6.7031 14.25-9.0117 21.777h-20.484c-4.0859 0-7.3984 3.3125-7.3984 7.3984v59.199c0 1.9609 0.77734 3.8438 2.168 5.2305 1.3867 1.3867 3.2695 2.168 5.2305 2.168h20.484c2.3086 7.5273 5.3281 14.816 9.0117 21.777l-14.48 14.477c-1.3867 1.3867-2.168 3.2695-2.168 5.2305 0 1.9648 0.78125 3.8477 2.168 5.2344l41.863 41.863v-0.003906c2.9375 2.7773 7.5273 2.7773 10.465 0l14.477-14.477c6.957 3.6836 14.25 6.6992 21.777 9.0117v20.484c0 1.9609 0.77734 3.8438 2.168 5.2305 1.3867 1.3867 3.2695 2.168 5.2305 2.168h59.199c1.9609 0 3.8438-0.78125 5.2305-2.168s2.168-3.2695 2.168-5.2305v-20.484c7.5273-2.3125 14.816-5.3281 21.777-9.0117l14.477 14.477c1.3867 1.3906 3.2695 2.168 5.2305 2.168 1.9648 0 3.8477-0.77734 5.2344-2.168l41.863-41.863-0.003906 0.003906c1.3906-1.3867 2.168-3.2695 2.168-5.2344 0-1.9609-0.77734-3.8438-2.168-5.2305l-14.477-14.477c3.6836-6.9609 6.6992-14.25 9.0117-21.777h20.484c1.9609 0 3.8438-0.78125 5.2305-2.168s2.168-3.2695 2.168-5.2305v-59.199c0-1.9609-0.78125-3.8438-2.168-5.2305-1.3867-1.3906-3.2695-2.168-5.2305-2.168h-20.484c-2.3125-7.5273-5.3281-14.82-9.0117-21.777l14.477-14.477c1.3906-1.3867 2.168-3.2695 2.168-5.2344 0-1.9609-0.77734-3.8438-2.168-5.2305l-41.859-41.863c-2.9375-2.7734-7.5273-2.7734-10.465 0l-14.477 14.477v0.003906c-6.9609-3.6836-14.25-6.7031-21.777-9.0117v-20.484c0-1.9609-0.78125-3.8438-2.168-5.2305-1.3867-1.3906-3.2695-2.168-5.2305-2.168zm26.688 52.457h-0.003906c2.9102 1.7148 6.6094 1.2461 9-1.1406l13.203-13.207 31.398 31.398-13.207 13.203c-2.3906 2.3867-2.8594 6.0898-1.1406 8.9961 5.2578 8.9102 9.2344 18.516 11.812 28.535 0.83984 3.2695 3.7891 5.5508 7.1641 5.5508h18.68v44.398h-18.68c-3.375 0-6.3242 2.2852-7.1641 5.5547-2.5781 10.02-6.5547 19.625-11.812 28.535-1.7188 2.9062-1.25 6.6094 1.1406 8.9961l13.207 13.203-31.398 31.398-13.203-13.207c-2.3906-2.3867-6.0898-2.8555-9-1.1406-8.9062 5.2578-18.512 9.2344-28.531 11.812-3.2695 0.83984-5.5547 3.7891-5.5547 7.1641v18.68h-44.398v-18.68c0-3.375-2.2812-6.3242-5.5508-7.1641-10.02-2.5781-19.625-6.5547-28.535-11.812-2.9062-1.7266-6.6133-1.2539-8.9961 1.1406l-13.203 13.207-31.398-31.398 13.207-13.203c2.3906-2.3906 2.8594-6.0898 1.1367-9-5.2578-8.9062-9.2344-18.512-11.809-28.531-0.84375-3.2695-3.7891-5.5547-7.1641-5.5547h-18.68v-44.398h18.68c3.375 0 6.3203-2.2812 7.1641-5.5508 2.5781-10.02 6.5508-19.625 11.812-28.535 1.7188-2.9062 1.25-6.6094-1.1406-8.9961l-13.207-13.203 31.398-31.398 13.203 13.207c2.3867 2.3945 6.0898 2.8633 8.9961 1.1367 8.9102-5.2578 18.516-9.2344 28.535-11.809 3.2695-0.84375 5.5508-3.7891 5.5508-7.1641v-18.68h44.398v18.68c0 3.375 2.2852 6.3203 5.5547 7.1641 10.02 2.5781 19.625 6.5508 28.531 11.812z"/>
  <path d="m583.19 560.99h14.801v14.801h-14.801z"/>
  <path d="m154.01 176.21h14.801v14.801h-14.801z"/>
 </g>
</svg>
