<?xml version="1.0" encoding="UTF-8"?>
<svg width="752pt" height="752pt" version="1.1" viewBox="0 0 752 752" xmlns="http://www.w3.org/2000/svg">
 <g fill="#e8d9f7">
  <path d="m265.01 168.81c-3.6914 0-7.4062 0.49609-11.098 1.4805-10.969-10.395-25.547-16.277-40.703-16.277-32.641 0-59.199 26.559-59.199 59.199 0 4.0938 3.3086 7.3984 7.3984 7.3984h140.59c4.0938 0 7.3984-3.3086 7.3984-7.3984 0.003906-24.488-19.906-44.402-44.391-44.402zm-95.582 37c3.5352-20.973 21.82-37 43.781-37 12.57 0 24.633 5.418 33.086 14.867 2.043 2.293 5.2969 3.0781 8.1602 1.9844 17.656-6.7695 35.098 4.1875 39.219 20.156h-124.25z"/>
  <path d="m265.01 235.41h14.801v14.801h-14.801z"/>
  <path d="m294.61 235.41h14.801v14.801h-14.801z"/>
  <path d="m324.2 235.41h14.801v14.801h-14.801z"/>
  <path d="m538.79 368.6v-143.42l55.105-27.555c2.5117-1.2539 4.0938-3.8164 4.0938-6.6211 0-2.8047-1.582-5.3633-4.0938-6.6211l-59.199-29.598c-2.3008-1.1406-5.0234-1.0273-7.1992 0.32422-2.1719 1.3555-3.5039 3.7305-3.5039 6.2969v118.4h-55.793c7.0586-7.8672 11.395-18.219 11.395-29.598 0-24.484-19.914-44.398-44.398-44.398s-44.398 19.914-44.398 44.398c0 13.289 5.8984 25.203 15.176 33.344l-63.75 56.668-41.387 20.691-21.223-3.5352c9.1719-8.1484 14.988-19.98 14.988-33.176 0-24.484-19.914-44.398-44.398-44.398s-44.398 19.914-44.398 44.398c0 13.504 6.082 25.602 15.629 33.75-0.10547 0.20703-0.25 0.37109-0.33203 0.58594l-22.938 59.641c-4.1953 10.93-3.0625 22.895 3.1172 32.832 1.1758 1.8945 2.5469 3.6055 3.9961 5.2227l-20.148 33.574-28.953 28.953c-2.8945 2.8945-2.8945 7.5703 0 10.465l22.199 22.199c1.4414 1.4414 3.3359 2.168 5.2305 2.168s3.7891-0.72656 5.2305-2.168l37-37c0.34766-0.34766 0.66016-0.72656 0.92578-1.125l28.422-42.637 9.8203 0.89063v30.242h-7.3984c-4.0938 0-7.3984 3.3086-7.3984 7.3984v53.309l-90.465 20.875c-3.3594 0.77734-5.7344 3.7656-5.7344 7.2148v7.3984h14.801v-1.5078l90.461-20.875c3.3555-0.77734 5.7344-3.7656 5.7344-7.2148v-51.797h111c2.0938 0 4.0977-0.88672 5.4961-2.4492l64.391-71.551h152.11v-14.801l-96.199 0.003906v-54.062c0-10.906-7.8086-20.113-18.551-21.895l-24.492-4.0859 4.7031-23.555h60.539v44.398zm0-159.96v-35.254l35.254 17.625zm-103.59 11.973c16.324 0 29.598 13.273 29.598 29.598s-13.273 29.598-29.598 29.598-29.598-13.273-29.598-29.598 13.273-29.598 29.598-29.598zm-40.031 92.348-11.254 29.258-20.902 15.762-6.8828-10.324zm7.043 78.141c3.7656 1.7227 7.8438 2.8359 12.121 3.2266l9.0703 0.82031-23.562 35.34-31.238 31.25-11.734-11.734 24.367-24.367c0.42969-0.42969 0.80078-0.90234 1.1094-1.4219zm-152-96.492c16.324 0 29.598 13.273 29.598 29.598s-13.273 29.598-29.598 29.598-29.598-13.273-29.598-29.598 13.273-29.598 29.598-29.598zm-35.348 209.88-31.25 31.246-11.734-11.734 24.367-24.367c0.42969-0.42969 0.80078-0.90234 1.1094-1.4219l19.867-33.113c3.7656 1.7227 7.8438 2.8359 12.121 3.2266l9.0703 0.82031zm64.945-2.6875v-37c0-3.832-2.9219-7.0234-6.7266-7.3711l-42.395-3.8555c-6.9922-0.63672-13.129-4.418-16.84-10.383-3.707-5.9648-4.3867-13.133-1.8633-19.691l21.109-54.895h23.902l43.801 7.2969c1.5469 0.25 3.1289 0.015624 4.5195-0.67969l38.551-19.277 6.7773 10.168-43.203 24.691h-35.031c-3.3945 0-6.3477 2.3086-7.1758 5.6094l-7.3984 29.598c-0.50391 2.0039-0.14844 4.1211 0.99219 5.8477 1.125 1.7227 2.9297 2.9062 4.9727 3.2422l32.035 5.3438c3.5664 0.58984 6.1719 3.6602 6.1719 7.293v54.062zm162.79-73.996c-2.0938 0-4.0977 0.88672-5.4961 2.4492l-64.395 71.547h-55.902v-54.062c0-10.906-7.8086-20.113-18.551-21.895l-24.129-4.0273 4.0586-16.211h31.219c1.2891 0 2.5547-0.33984 3.6719-0.97656l51.797-29.598c0.10938-0.066406 0.17578-0.18359 0.28906-0.25 0.15625-0.10547 0.33984-0.14844 0.49609-0.25781l15.457-11.656c0.73438 4.9375 2.418 9.7461 5.1562 14.156 1.1758 1.8945 2.5469 3.6055 3.9961 5.2227l-20.141 33.574-28.953 28.953c-2.8945 2.8945-2.8945 7.5703 0 10.465l22.199 22.199c1.4414 1.4375 3.3359 2.1641 5.2305 2.1641 1.8945 0 3.7891-0.72656 5.2305-2.168l37-37c0.34766-0.34766 0.66016-0.72656 0.92578-1.125l28.422-42.637 9.8203 0.89062v30.242zm14.801-118.4c-3.5312 0-6.5625 2.4922-7.25 5.9492l-7.3984 37c-0.39062 1.9688 0.03125 4.0039 1.1602 5.6602 1.1406 1.6484 2.9023 2.7617 4.875 3.0938l32.035 5.3438c3.5703 0.58203 6.1758 3.6562 6.1758 7.2891v54.062h-22.199v-37c0-3.832-2.9219-7.0234-6.7266-7.3711l-42.395-3.8555c-6.9922-0.63672-13.129-4.418-16.84-10.383-3.707-5.9648-4.3867-13.133-1.8633-19.691l21.109-54.895h105.91v14.801z"/>
 </g>
</svg>
