<?xml version="1.0" encoding="UTF-8"?>
<svg width="752pt" height="752pt" version="1.1" viewBox="0 0 752 752" xmlns="http://www.w3.org/2000/svg">
 <g fill="#e8d9f7">
  <path d="m386.8 447.68c-29.355 0-53.234-27.371-53.234-61.02 0-33.641 23.879-61.012 53.234-61.012s53.227 27.371 53.227 61.012-23.871 61.02-53.227 61.02zm0-99.836c-17.117 0-31.035 17.41-31.035 38.812 0 21.406 13.918 38.82 31.035 38.82s31.027-17.418 31.027-38.82-13.918-38.812-31.027-38.812z"/>
  <path d="m305.9 470.89-71.473-85.746h-15.191c-4.0703 1.082-12.137 2.207-19.781-2.8945-8.6641-5.7656-13.066-17.02-13.066-33.438l-0.003907-148.05c-0.96094-5.0312-2.8711-20.312 6.6875-31.41 4.7812-5.5508 14.082-11.809 31.516-10.227 33.129 3.0547 283.21-0.22266 285.75-0.25781h9.0039c4.2461-0.79297 15-1.8438 25.254 4.9141 9.7539 6.4219 15.82 17.598 18.012 33.23l0.10938 1.5391v150.27c0 1.7461-0.3125 17.391-11.18 27.793-4.375 4.1797-12.223 9.1016-24.484 8.5156l-67.73 0.015626v-22.199h68.219c5.793 0.28125 7.918-1.6875 8.5898-2.3164 3.4688-3.2617 4.3516-9.8477 4.3867-11.891l0.007812-149.38c-1.2891-8.3906-4.0273-14.23-7.9492-16.922-4.1875-2.8633-9.1016-1.7695-9.3164-1.7188l-2.7461 0.34766h-10.027c-10.195 0.14063-253.63 3.3359-287.94 0.16406-3.5781-0.33984-9.9922-0.4375-12.621 2.5664-2.8047 3.2109-2.3164 10.293-1.6406 13.223l0.30469 2.582v149.22c0 10.41 2.2734 14.32 3.1445 14.941 0.29688 0.21484 1.3008 0.10547 1.8203-0.074219l2.0586-0.85937 1.9375 0.11719h27.273l38.879 46.641v-46.641h35.172v22.199h-12.973z"/>
  <path d="m496.5 582.56-22.184-0.91016c0.015625-0.23828 0.96875-24.324-0.007812-62.84-0.69531-27.469-51.531-36.953-58.008-38.051l-65.754 0.003906c-39.285 4.1875-45.871 29.938-46.664 33.941v67.398h-22.199l0.089844-69.727c2.1328-16.473 18.883-48.898 67.078-53.758l1.1094-0.058594 68.758 0.10938c3.1289 0.44531 76.543 11.328 77.77 59.574 1.0078 39.336 0.046875 63.32 0.011719 64.316z"/>
  <path d="m270.72 571.01h237.75v22.199h-237.75z"/>
  <path d="m202.5 571.01h16.051v22.199h-16.051z"/>
  <path d="m317.87 258.91h16.051v22.199h-16.051z"/>
  <path d="m360.43 258.91h16.051v22.199h-16.051z"/>
  <path d="m404.23 258.91h16.051v22.199h-16.051z"/>
  <path d="m241.62 571.01h16.051v22.199h-16.051z"/>
  <path d="m523.53 571.01h16.051v22.199h-16.051z"/>
 </g>
</svg>
