<?xml version="1.0" encoding="UTF-8"?>
<svg width="752pt" height="752pt" version="1.1" viewBox="0 0 752 752" xmlns="http://www.w3.org/2000/svg">
 <path d="m574.88 568.03c-26.957-75.535-46.422-107.77-65.082-107.77l-124.4 0.003906v-30.938l17.262-17.18c3.5312-3.5195 5.4766-8.2109 5.4766-13.211-0.003906-4.9961-1.9492-9.6836-5.4805-13.199-4.6211-4.6016-11.145-6.168-17.258-4.7969v-62.035c28.926-16.359 43.59-7.9336 60.41 1.8555 10.707 6.2305 22.25 12.945 37.473 12.945 10.918 0 23.727-3.4492 39.48-13.008 0.015625-0.007813 0.027344-0.023438 0.042969-0.035157 0.23047-0.14062 0.42969-0.3125 0.63672-0.48437 0.12891-0.10547 0.28125-0.19922 0.40234-0.30859 0.17578-0.16406 0.3125-0.34766 0.46484-0.52734 0.125-0.14453 0.26562-0.28125 0.375-0.43359 0.125-0.17578 0.21875-0.37109 0.32422-0.55469 0.10156-0.17969 0.21875-0.34375 0.30469-0.53125 0.10937-0.23828 0.17969-0.49219 0.26172-0.73828 0.046875-0.14453 0.10938-0.28906 0.14844-0.44141 0.0625-0.26562 0.085937-0.54688 0.12109-0.81641 0.015624-0.14453 0.054687-0.28516 0.058593-0.42578 0.007813-0.21094-0.019531-0.42969-0.027343-0.64844-0.007813-0.21094-0.003907-0.42578-0.039063-0.63672-0.023437-0.15625-0.078125-0.30859-0.11719-0.46484-0.0625-0.26953-0.11719-0.54688-0.21875-0.8125-0.003907-0.015625-0.003907-0.027344-0.015626-0.046875l-16.855-44.816 17.016-58.328c0.015625-0.042969 0.015625-0.085938 0.023437-0.125 0.066406-0.24219 0.10156-0.49219 0.14062-0.74609 0.027344-0.18359 0.066407-0.36328 0.078125-0.54297 0.015625-0.21875-0.003906-0.43359-0.007812-0.65234-0.003906-0.20703-0.003906-0.42188-0.027344-0.625-0.023438-0.19141-0.082031-0.38672-0.125-0.57812-0.046875-0.22266-0.09375-0.44922-0.16406-0.66016-0.058594-0.16797-0.14063-0.32812-0.21094-0.49219-0.10156-0.23047-0.19922-0.46484-0.32812-0.6875-0.023437-0.039062-0.035156-0.082031-0.058594-0.12109-0.074219-0.12109-0.16797-0.21875-0.25-0.33203-0.14062-0.20313-0.28125-0.40625-0.44531-0.58984-0.13672-0.15625-0.28516-0.28906-0.43359-0.42969-0.16016-0.14844-0.3125-0.30078-0.48828-0.43359-0.17969-0.13672-0.36719-0.25-0.5625-0.37109-0.16797-0.10547-0.33203-0.21094-0.51172-0.30078-0.22656-0.10938-0.46094-0.19922-0.69922-0.28125-0.12891-0.046876-0.24219-0.10938-0.375-0.14844-0.042968-0.015625-0.082031-0.007812-0.125-0.023438-0.25-0.066406-0.51172-0.10547-0.77344-0.14453-0.16797-0.023437-0.33984-0.0625-0.50781-0.074219-0.23828-0.015624-0.47266 0-0.71094 0.015626-0.1875 0.007812-0.375 0.003906-0.56641 0.027343-0.21094 0.027344-0.42187 0.085938-0.62891 0.13672-0.20703 0.046875-0.41406 0.085938-0.61719 0.15625-0.17969 0.0625-0.34766 0.14844-0.52734 0.22656-0.22266 0.097657-0.44531 0.19141-0.65625 0.3125-0.039063 0.023438-0.085937 0.035157-0.125 0.058594-31.074 18.848-46.129 10.086-63.566-0.058594-16.695-9.7188-35.418-20.609-67.004-5.3633l-0.007812-17.262c0-3.6211-2.9336-6.5469-6.5469-6.5469s-6.5469 2.9336-6.5469 6.5469v209.7l-39.07 35.18-32.633-0.18359h-0.039063-47.367c-22.66 0-44.332 48.539-69.902 121.41-2.4531 6.9922-4.3945 12.516-5.6211 15.605-1.4297 3.5859-1.1836 7.2539 0.69922 10.312 2.0312 3.3086 5.4648 5.2148 9.418 5.2148h99.043c5.9648 0 11.109-4.6484 11.711-10.594l7.5977-75.777 29.492-12.227c0.78906-0.32812 1.5078-0.80078 2.1133-1.4062l34.566-34.406v17.898h-2.7305c-10.316 0-18.715 8.3711-18.715 18.664 0 9.5312 7.3359 17.18 17.836 18.602l3.793 0.51172c-0.10938 0.48438-0.1875 0.97656-0.1875 1.4922v72.926c0 3.6211 2.9336 6.5469 6.5469 6.5469s6.5469-2.9336 6.5469-6.5469l-0.003906-72.672 69.73 9.457 6.1797 61.637c0.33203 3.3477 3.1523 5.8945 6.5156 5.8945h100.88c2.125 0 4.125-1.0352 5.3555-2.7734 1.25-1.7422 1.5508-3.9688 0.83594-5.9805zm-129.07-354.55c10.707 6.2305 22.25 12.945 37.473 12.945 7.4961 0 15.91-1.6875 25.523-5.8008l-13.355 45.781c-0.40234 1.3633-0.34375 2.8125 0.15625 4.1367l15.66 41.633c-27.926 15.211-42.344 6.875-58.867-2.7383-16.695-9.7188-35.418-20.609-67.004-5.3633v-92.453c28.93-16.359 43.594-7.9297 60.414 1.8594zm-116.4 253.1-30.934 12.824c-2.4062 0.58594-4.2969 2.4688-4.8281 4.957-0.027344 0.12891-0.058594 0.26562-0.082031 0.39453-0.015625 0.10938-0.054688 0.21094-0.066406 0.32422l-7.8828 78.594-94.852 0.003907c1.2617-3.375 2.9102-8.0664 4.8789-13.695 6.6523-18.969 16.715-47.633 28.039-71.926 18.07-38.758 27.746-40.723 29.508-40.723h47.328l35.164 0.19922c1.7734 0.003906 3.207-0.58984 4.4219-1.6836l45.102-40.605c2.5195-2.2695 6.0469-2.3672 8.207-0.22656 1.043 1.0391 1.6172 2.4297 1.6172 3.918 0 1.4922-0.57422 2.8867-1.6172 3.9297l-19.195 19.109-0.003907 0.003907zm144.34 97.102-6.1094-60.883c-0.30078-3.0156-2.6328-5.4336-5.6328-5.8359l-91.559-12.418c-2.418-0.32812-6.5-1.875-6.5-5.6211 0-3.0703 2.5234-5.5625 5.6211-5.5625h140.22c5.0547 0 19.805 9.0156 49.586 90.32zm-202.35-154.81c2.7344 0.80078 5.5156 1.1836 8.2812 1.1836 16.508 0 32.852-13.602 38.805-33.738 3.3867-11.449 2.75-21.965-1.8516-30.402-4.2188-7.7422-11.453-13.301-20.93-16.074-20.801-6.0938-39.805 4.6836-46.18 26.227-3.8477 13-2.7695 26.48 2.957 36.992 4.3008 7.8789 11.012 13.496 18.918 15.812zm-9.3125-49.09c4.0547-13.699 13.121-18.527 22.117-18.527 2.6523 0 5.3047 0.42188 7.8203 1.1602 6.0586 1.7773 10.598 5.1562 13.117 9.7773 2.8945 5.3164 3.1719 12.375 0.79297 20.418-4.9141 16.609-18.746 27.234-30.844 23.699-5.8125-1.707-9.2461-6.1133-11.094-9.5117-4.0234-7.375-4.7383-17.469-1.9102-27.016zm186.44 21.883c-4.6016 8.4375-5.2383 18.949-1.8516 30.395 5.9531 20.141 22.297 33.738 38.805 33.738 2.7695 0 5.5508-0.38672 8.2812-1.1836 7.9023-2.3164 14.617-7.9297 18.91-15.809 5.7305-10.512 6.8086-23.992 2.9609-36.992-6.3711-21.543-25.352-32.332-46.18-26.227-9.4688 2.7812-16.703 8.3398-20.926 16.078zm24.617-3.5078c2.5117-0.73828 5.1602-1.1602 7.8203-1.1602 8.9961 0 18.07 4.8281 22.117 18.527 2.8203 9.5508 2.1133 19.645-1.9023 27.012-1.8516 3.3984-5.2773 7.8047-11.09 9.5039-12.121 3.543-25.938-7.0898-30.844-23.699-2.3789-8.043-2.1055-15.098 0.79297-20.418 2.5078-4.6094 7.0391-7.9922 13.105-9.7656z" fill="#e8d9f7"/>
</svg>
