<?xml version="1.0" encoding="UTF-8"?>
<svg width="752pt" height="752pt" version="1.1" viewBox="0 0 752 752" xmlns="http://www.w3.org/2000/svg">
 <g fill="#e8d9f7">
  <path d="m584.6 510.4c-7.6445-0.36328-15.402-0.55469-23.203-0.62891 2.7617-15.918 16.062-36.371 16.211-36.598l4.9453-7.5391-9.0117 0.20703c-0.33594-0.015625-32.793 0.61719-95.129-9.0859-55.5-8.6367-91.934 13.625-102.41 21.18-10.484-7.5586-46.93-29.824-102.41-21.184-62.328 9.707-94.797 9.0977-95.129 9.0859l-9.0156-0.20703 4.9492 7.5391c0.14844 0.22656 13.449 20.676 16.211 36.598-7.8008 0.070313-15.559 0.26562-23.203 0.62891l-4.5117 0.21875v32.629l4.6914 0.042968c1.1914 0.011719 116.88 1.2109 164.39 11.664 1.5117 10.227 8.8398 24.832 29.273 24.832h29.516c20.434 0 27.762-14.605 29.273-24.832 47.512-10.453 163.2-11.652 164.39-11.664l4.6875-0.042968v-32.629zm-309.55-44.285c60.496-9.4258 97.527 21.094 97.895 21.402l3.0664 2.5742 3.0508-2.5742c0.36719-0.30859 37.371-30.844 97.895-21.402 45.488 7.082 74.906 8.75 88.352 9.1172-1.9961 3.5117-4.4062 8.0391-6.6602 13.02-18.062-2.6641-97.191-12.734-147.61 6.7539l3.4141 8.832c45.82-17.719 119.62-9.3906 140.56-6.5195-1.4648 4.1641-2.625 8.3828-3.2031 12.426-82.242 0.34766-166.56 14.414-175.81 16.004-9.25-1.5898-93.582-15.66-175.82-16.004-0.57812-4.043-1.7383-8.2578-3.2031-12.422 20.938-2.8672 94.738-11.191 140.56 6.5195l3.4141-8.832c-50.414-19.492-129.54-9.4258-147.61-6.7578-2.25-4.9805-4.6602-9.5078-6.6562-13.02 13.449-0.36719 42.867-2.0352 88.352-9.1172zm304.59 67.758c-23.223 0.33594-123.5 2.3594-165.17 12.648l-3.5547 0.875-0.042969 3.6641c-0.007812 0.78516-0.45703 19.25-20.113 19.25h-29.516c-19.152 0-20.07-17.301-20.113-19.25l-0.042968-3.6641-3.5547-0.875c-41.672-10.285-141.95-12.312-165.17-12.648v-14.207c93.34-3.6875 201.71 15.355 202.81 15.551l0.82812 0.14844 0.83203-0.14844c1.1016-0.19531 109.48-19.242 202.81-15.551z"/>
  <path d="m344.62 373.21 1.4648 16.809 60.973-13.336 0.31641-3.457c1.7891-19.758 7.3242-36.953 16.469-51.109 5.9375-9.2227 9.0703-19.867 9.0703-30.785 0-17.066-7.5508-33.082-20.715-43.941-13.156-10.855-30.488-15.188-47.555-11.887-22.406 4.3555-40.285 22.383-44.48 44.844-2.5938 13.566-0.44531 26.992 6.2148 38.836 10.637 18.812 16.605 36.496 18.242 54.027zm-15.156-91.105c3.4922-18.695 18.355-33.688 36.977-37.305 3.1484-0.60938 6.3047-0.91016 9.4297-0.91016 11.055 0 21.742 3.7461 30.297 10.805 10.977 9.0547 17.27 22.406 17.27 36.637 0 9.0938-2.6133 17.969-7.5586 25.652-9.4336 14.609-15.344 32.062-17.59 51.922l-17.547 3.8359v-46.152l22.492-22.285-6.6641-6.7305-20.566 20.379-20.562-20.375-6.6641 6.7305 22.492 22.281v48.227l-16.688 3.6484-0.53125-6.1055c-1.7383-18.656-8.2773-38.113-19.426-57.828-5.5469-9.8594-7.332-21.066-5.1602-32.426z"/>
  <path d="m366.55 434.2h18.91c8.4805 0 14.402-6.5391 14.402-15.898v-17.793l16.75-3.668-2.0273-9.2539-14.723 3.2266v-0.007813l-38.559 8.457-24.914 5.457 2.0273 9.2539 13.73-3.0078v7.3359c-0.003906 9.3633 5.918 15.898 14.402 15.898zm23.844-15.898c0 4.0234-1.8438 6.4258-4.9336 6.4258h-18.91c-3.0898 0-4.9336-2.4023-4.9336-6.4258v-9.4102l2.3125-0.50781 26.465-5.7969z"/>
  <path d="m371.27 176.96h9.4727v35.988h-9.4727z"/>
  <path d="m257.75 350.75 35.992-14.207 3.4766 8.8125-35.992 14.207z"/>
  <path d="m454.8 345.32 3.4805-8.8086 35.988 14.215-3.4805 8.8086z"/>
  <path d="m255.57 249.33 4.6992-8.2227 33.973 19.41-4.6992 8.2227z"/>
  <path d="m457.74 260.53 33.969-19.41 4.6992 8.2227-33.969 19.41z"/>
 </g>
</svg>
