<?xml version="1.0" encoding="UTF-8"?>
<svg width="752pt" height="752pt" version="1.1" viewBox="0 0 752 752" xmlns="http://www.w3.org/2000/svg">
 <g fill="#e8d9f7">
  <path d="m328.41 376.01c-3.2695 0.125-5.8086 2.8828-5.6758 6.1523l5.8125 145.41-11.738 11.738-11.738-11.738 5.8125-145.41c0.12891-3.2695-2.4102-6.0273-5.6758-6.1523-3.1914-0.23047-6.0195 2.4023-6.1523 5.6758l-5.918 147.99c-0.070312 1.6523 0.5625 3.2578 1.7305 4.4219l17.758 17.758c1.1523 1.1602 2.668 1.7383 4.1836 1.7383 1.5156 0 3.0312-0.58203 4.1836-1.7344l17.758-17.758c1.168-1.168 1.8008-2.7695 1.7305-4.4219l-5.918-147.99c-0.13281-3.2773-2.957-5.918-6.1523-5.6797z"/>
  <path d="m247.48 543.47c-1.0742 1.1172-1.7188 2.6641-1.7188 4.2031 0 1.5391 0.64453 3.0781 1.7148 4.2031 1.1211 1.0625 2.6016 1.7148 4.207 1.7148 1.5391 0 3.0781-0.65234 4.2031-1.7148 1.0625-1.125 1.7148-2.6641 1.7148-4.2031 0-1.5391-0.65234-3.0859-1.7148-4.2031-2.25-2.1914-6.2188-2.1914-8.4062 0z"/>
  <path d="m448.77 211.98-31.332 31.332-7.6523-7.6523c-2.3164-2.3164-6.0547-2.3164-8.3711 0-2.3164 2.3164-2.3164 6.0547 0 8.3711l11.84 11.84c1.1523 1.1523 2.668 1.7305 4.1836 1.7305s3.0312-0.58203 4.1836-1.7344l35.52-35.52c2.3164-2.3164 2.3164-6.0547 0-8.3711-2.3164-2.3125-6.0586-2.3125-8.3711 0.003906z"/>
  <path d="m547.68 222.09h-47.359c-3.2734 0-5.918 2.6445-5.918 5.918 0 3.2734 2.6445 5.918 5.918 5.918h47.359c3.2734 0 5.918-2.6445 5.918-5.918 0-3.2695-2.6445-5.918-5.918-5.918z"/>
  <path d="m500.32 257.61h35.52c3.2734 0 5.918-2.6445 5.918-5.918s-2.6445-5.918-5.918-5.918h-35.52c-3.2734 0-5.918 2.6445-5.918 5.918s2.6445 5.918 5.918 5.918z"/>
  <path d="m472.43 223.8c-1.0703 1.1172-1.7148 2.6641-1.7148 4.2031 0 1.5391 0.64453 3.0781 1.7148 4.2031 1.1211 1.0664 2.6641 1.7148 4.2031 1.7148 1.5977 0 3.0781-0.65234 4.2031-1.7148 1.0664-1.125 1.7188-2.6641 1.7188-4.2031 0-1.5391-0.65234-3.0859-1.7148-4.2031-2.1953-2.1914-6.2188-2.1914-8.4102 0z"/>
  <path d="m448.77 283.02-31.332 31.332-7.6523-7.6523c-2.3164-2.3164-6.0547-2.3164-8.3711 0-2.3164 2.3164-2.3164 6.0547 0 8.3711l11.84 11.84c1.1523 1.1523 2.668 1.7344 4.1836 1.7344s3.0312-0.58203 4.1836-1.7344l35.52-35.52c2.3164-2.3164 2.3164-6.0547 0-8.3711-2.3164-2.3125-6.0586-2.3125-8.3711 0z"/>
  <path d="m547.68 293.12h-47.359c-3.2734 0-5.918 2.6445-5.918 5.918 0 3.2734 2.6445 5.918 5.918 5.918h47.359c3.2734 0 5.918-2.6445 5.918-5.918 0-3.2734-2.6445-5.918-5.918-5.918z"/>
  <path d="m500.32 328.64h35.52c3.2734 0 5.918-2.6445 5.918-5.918 0-3.2734-2.6445-5.918-5.918-5.918h-35.52c-3.2734 0-5.918 2.6445-5.918 5.918 0 3.2695 2.6445 5.918 5.918 5.918z"/>
  <path d="m472.43 294.84c-1.0703 1.1211-1.7148 2.6641-1.7148 4.2031 0 1.5391 0.64453 3.0781 1.7148 4.2031 1.1211 1.0664 2.6641 1.7188 4.2031 1.7188 1.5391 0 3.0781-0.65234 4.2031-1.7773 1.0664-1.0664 1.7188-2.6055 1.7188-4.1445 0-1.5391-0.65234-3.0859-1.7148-4.2031-2.2539-2.1875-6.1602-2.1875-8.4102 0z"/>
  <path d="m448.77 354.06-31.332 31.332-7.6523-7.6523c-2.3164-2.3164-6.0547-2.3164-8.3711 0-2.3164 2.3164-2.3164 6.0547 0 8.3711l11.84 11.84c1.1523 1.1523 2.668 1.7305 4.1836 1.7305s3.0312-0.58203 4.1836-1.7344l35.52-35.52c2.3164-2.3164 2.3164-6.0547 0-8.3711-2.3164-2.3125-6.0586-2.3125-8.3711 0.003906z"/>
  <path d="m547.68 364.16h-47.359c-3.2734 0-5.918 2.6445-5.918 5.918s2.6445 5.918 5.918 5.918h47.359c3.2734 0 5.918-2.6445 5.918-5.918 0-3.2695-2.6445-5.918-5.918-5.918z"/>
  <path d="m547.68 387.84h-47.359c-3.2734 0-5.918 2.6445-5.918 5.918 0 3.2734 2.6445 5.918 5.918 5.918h47.359c3.2734 0 5.918-2.6445 5.918-5.918 0-3.2695-2.6445-5.918-5.918-5.918z"/>
  <path d="m472.43 365.88c-1.0703 1.1172-1.7148 2.6641-1.7148 4.2031 0 1.5977 0.64453 3.0781 1.7148 4.2031 1.1211 1.0664 2.5977 1.7148 4.2031 1.7148 1.5977 0 3.0781-0.65234 4.2031-1.7148 1.0664-1.125 1.7188-2.6055 1.7188-4.2031 0-1.5391-0.65234-3.0859-1.7148-4.2031-2.1953-2.1914-6.2188-2.1914-8.4102 0z"/>
  <path d="m448.77 425.09-31.332 31.332-7.6523-7.6523c-2.3164-2.3164-6.0547-2.3164-8.3711 0-2.3164 2.3164-2.3164 6.0547 0 8.3711l11.84 11.84c1.1523 1.1523 2.668 1.7344 4.1836 1.7344s3.0312-0.58203 4.1836-1.7344l35.52-35.52c2.3164-2.3164 2.3164-6.0547 0-8.3711-2.3164-2.3125-6.0586-2.3125-8.3711 0z"/>
  <path d="m547.68 435.2h-47.359c-3.2734 0-5.918 2.6445-5.918 5.918 0 3.2734 2.6445 5.918 5.918 5.918h47.359c3.2734 0 5.918-2.6445 5.918-5.918 0-3.2734-2.6445-5.918-5.918-5.918z"/>
  <path d="m500.32 470.72h23.68c3.2734 0 5.918-2.6445 5.918-5.918 0-3.2734-2.6445-5.918-5.918-5.918h-23.68c-3.2734 0-5.918 2.6445-5.918 5.918 0 3.2695 2.6445 5.918 5.918 5.918z"/>
  <path d="m472.43 436.91c-1.0703 1.1211-1.7148 2.6016-1.7148 4.2031 0 1.5977 0.64453 3.0781 1.7148 4.2031 1.1211 1.0664 2.5977 1.7188 4.2031 1.7188 1.5391 0 3.0781-0.65234 4.2031-1.7148 1.0664-1.1289 1.7188-2.668 1.7188-4.207 0-1.5391-0.65234-3.0859-1.7148-4.2031-2.2539-2.1875-6.2188-2.1875-8.4102 0z"/>
  <path d="m448.77 496.13-31.332 31.332-7.6523-7.6523c-2.3164-2.3164-6.0547-2.3164-8.3711 0-2.3164 2.3164-2.3164 6.0547 0 8.3711l11.84 11.84c1.1523 1.1523 2.668 1.7305 4.1836 1.7305s3.0312-0.58203 4.1836-1.7344l35.52-35.52c2.3164-2.3164 2.3164-6.0547 0-8.3711-2.3164-2.3125-6.0586-2.3125-8.3711 0.003906z"/>
  <path d="m547.68 506.23h-47.359c-3.2734 0-5.918 2.6445-5.918 5.918 0 3.2734 2.6445 5.918 5.918 5.918h47.359c3.2734 0 5.918-2.6445 5.918-5.918 0-3.2695-2.6445-5.918-5.918-5.918z"/>
  <path d="m535.84 529.91h-35.52c-3.2734 0-5.918 2.6445-5.918 5.918 0 3.2734 2.6445 5.918 5.918 5.918h35.52c3.2734 0 5.918-2.6445 5.918-5.918 0-3.2695-2.6445-5.918-5.918-5.918z"/>
  <path d="m472.43 507.95c-1.0703 1.1172-1.7148 2.5977-1.7148 4.2031 0 1.5391 0.64453 3.0781 1.7148 4.2031 1.1211 1.0664 2.6641 1.7148 4.2031 1.7148 1.5391 0 3.0781-0.65234 4.2031-1.7148 1.0664-1.125 1.7188-2.6641 1.7188-4.2031s-0.65234-3.0859-1.7148-4.2031c-2.2539-2.1914-6.1602-2.1914-8.4102 0z"/>
  <path d="m384.28 364.45-37.109-16.137v-13.605c4.9844-3.7578 13.996-13.129 20.168-34.434 2.1367-2.6172 7.0391-9.3633 8.7188-17.836 1.0781-5.3086 1.3203-14.977-3.5156-20.168 0.875-8.3242 1.9062-28.594-6.8086-41.656-10.918-16.387-33.184-22.199-48.93-22.199-15.746 0-38.012 5.8125-48.938 22.199-8.7148 13.066-7.6914 33.336-6.8086 41.656-4.832 5.1914-4.5859 14.852-3.5234 20.145 1.6797 8.4883 6.582 15.238 8.7266 17.859 6.1758 21.312 15.184 30.684 20.168 34.434v13.605l-66.52 28.93c-12.055 5.2344-21.5 19.629-21.5 32.785v137.65c0 3.2734 2.6445 5.918 5.918 5.918h23.68c3.2734 0 5.918-2.6445 5.918-5.918 0-3.2734-2.6445-5.918-5.918-5.918h-17.758v-131.73c0-8.3516 6.7188-18.605 14.379-21.926l70.086-30.477c2.1602-0.94141 3.5625-3.0742 3.5625-5.4297v-20.715c0-2.2305-1.3867-4.3398-3.3789-5.3438-0.10547-0.054687-10.734-5.6719-17.582-30.297-0.25391-0.89453-0.72266-1.7422-1.3555-2.4258-0.054688-0.058594-5.3398-5.9141-6.8008-13.312-0.82422-4.0508-0.27344-8.3594 0.52734-9.6016 2.5117-1.0547 3.9961-3.6992 3.5469-6.4219-1.1133-6.7266-2.4609-26.449 4.5-36.887 8.8906-13.371 28.746-16.938 39.07-16.938 10.324 0 30.18 3.5703 39.09 16.926 6.9336 10.395 5.5938 30.156 4.5 36.891-0.44531 2.7188 1.043 5.3633 3.5469 6.418 0.80078 1.2422 1.3516 5.5547 0.51953 9.625-1.457 7.375-6.75 13.23-6.7852 13.277-0.64062 0.6875-1.1133 1.5273-1.3633 2.4375-6.8438 24.613-17.465 30.238-17.453 30.238-2.1328 0.94531-3.5117 3.0742-3.5117 5.4062v20.715c0 2.3555 1.3984 4.4922 3.5625 5.4297l40.668 17.684c0.76953 0.33594 1.5703 0.49219 2.3516 0.49219 2.2891 0 4.4648-1.332 5.4336-3.5625 1.3008-2.9922-0.078125-6.4766-3.082-7.7812z"/>
 </g>
</svg>
